<svg xmlns="http://www.w3.org/2000/svg" xmlns:xlink="http://www.w3.org/1999/xlink" viewBox="0 0 328.21 98"><defs><style>.cls-1{fill:#333;}.cls-2{fill:#0d6ae5;}</style><symbol id="Type_2" data-name="Type 2" viewBox="0 0 203.27 60.1"><path class="cls-1" d="M17.2,60.1A17.24,17.24,0,0,1,4.9,55.49,15.39,15.39,0,0,1,0,43.75v-.09A15.72,15.72,0,0,1,4.85,32,16.72,16.72,0,0,1,17,27.23a19,19,0,0,1,12.82,4.61L24.69,38a11.67,11.67,0,0,0-7.63-3,7.49,7.49,0,0,0-5.75,2.53A8.75,8.75,0,0,0,9,43.71v.09a8.62,8.62,0,0,0,2.42,6.3,8.26,8.26,0,0,0,6.16,2.46,9.06,9.06,0,0,0,5.06-1.31V47.41H16.39V41H30.92V55.22A20.92,20.92,0,0,1,17.2,60.1Z"/><path class="cls-1" d="M39.37,55.88v-28h8.75V51.79H63.43v7.67H43A3.58,3.58,0,0,1,39.37,55.88Z"/><path class="cls-1" d="M96.05,55.31A16.72,16.72,0,0,1,83.88,60.1a16.67,16.67,0,0,1-12.12-4.74,15.62,15.62,0,0,1-4.85-11.61v-.09A15.65,15.65,0,0,1,71.81,32,16.71,16.71,0,0,1,84,27.23,16.67,16.67,0,0,1,96.1,32,15.61,15.61,0,0,1,101,43.57v.09A15.65,15.65,0,0,1,96.05,55.31ZM78.17,49.69a8,8,0,0,0,11.58.05,8.52,8.52,0,0,0,2.26-6v-.09a8.61,8.61,0,0,0-2.3-6,7.59,7.59,0,0,0-5.83-2.51,7.42,7.42,0,0,0-5.75,2.46,8.59,8.59,0,0,0-2.24,6v.09A8.64,8.64,0,0,0,78.17,49.69Z"/><path class="cls-1" d="M107.58,59.46V27.86h16.21c3.85,0,6.73.95,8.62,2.85a6.89,6.89,0,0,1,2,5.1v.09q0,4.92-4.88,7a10.19,10.19,0,0,1,4.67,2.82,7.16,7.16,0,0,1,1.61,4.9v.09a7.52,7.52,0,0,1-3.16,6.39q-3.16,2.32-8.81,2.32Zm8.54-19h5.5q4.16,0,4.16-2.76v-.09c0-1.8-1.33-2.7-4-2.7h-5.69Zm0,12h6.77a5.56,5.56,0,0,0,3.09-.74,2.43,2.43,0,0,0,1.11-2.15v-.09q0-2.84-4.29-2.84h-6.68Z"/><path class="cls-1" d="M139.22,59.46l13.45-31.82h8.45l13.45,31.82h-9.39l-2.3-5.64H150.69l-2.26,5.64Zm14-12.46h7.09l-3.52-9Z"/><path class="cls-1" d="M179.21,55.88v-28H188V51.79h15.3v7.67H182.79A3.58,3.58,0,0,1,179.21,55.88Z"/><path class="cls-1" d="M17.35,16.22A9.29,9.29,0,0,1,10.48,19a9.26,9.26,0,0,1-6.85-2.72A9,9,0,0,1,.91,9.59V9.54A9.06,9.06,0,0,1,3.66,2.86,9.32,9.32,0,0,1,10.53.11a9.32,9.32,0,0,1,6.85,2.72A9.09,9.09,0,0,1,20.1,9.49v0A9.09,9.09,0,0,1,17.35,16.22ZM6.61,13.61a5.12,5.12,0,0,0,3.92,1.66,5,5,0,0,0,3.89-1.64,5.69,5.69,0,0,0,1.53-4V9.54A5.75,5.75,0,0,0,14.4,5.48a5.12,5.12,0,0,0-3.92-1.67,5.1,5.1,0,0,0-3.9,1.64,5.75,5.75,0,0,0-1.52,4v0A5.77,5.77,0,0,0,6.61,13.61Z"/><path class="cls-1" d="M23.14,21.79V3.84h3.92v2a5.13,5.13,0,0,1,4.31-2.24A6,6,0,0,1,35.81,5.5a7.22,7.22,0,0,1,1.85,5.22v0A7.24,7.24,0,0,1,35.82,16a5.94,5.94,0,0,1-4.45,1.92,5.39,5.39,0,0,1-4.31-2.07v5.94ZM28,13.52a3.09,3.09,0,0,0,2.38,1.07,3.12,3.12,0,0,0,2.4-1.06,3.85,3.85,0,0,0,1-2.76v0a3.85,3.85,0,0,0-1-2.74,3.11,3.11,0,0,0-2.4-1.08A3.07,3.07,0,0,0,28,8a3.89,3.89,0,0,0-1,2.74v0A3.92,3.92,0,0,0,28,13.52Z"/><path class="cls-1" d="M47,18a7.12,7.12,0,0,1-5.19-2,6.89,6.89,0,0,1-2-5.14v-.06a7.22,7.22,0,0,1,1.94-5.1,6.36,6.36,0,0,1,4.9-2.09,6,6,0,0,1,5,2.16,8.33,8.33,0,0,1,1.73,5.34c0,.21,0,.55,0,1H43.7a3.38,3.38,0,0,0,1.16,2,3.46,3.46,0,0,0,2.22.69,4.79,4.79,0,0,0,3.35-1.42l2.24,2A6.87,6.87,0,0,1,47,18ZM43.65,9.66h5.9a3.74,3.74,0,0,0-.94-2.14,2.61,2.61,0,0,0-2-.8,2.68,2.68,0,0,0-2,.79A3.81,3.81,0,0,0,43.65,9.66Z"/><path class="cls-1" d="M56.18,17.66V3.84H60.1v2a5,5,0,0,1,4.05-2.22,4.44,4.44,0,0,1,3.46,1.36,5.45,5.45,0,0,1,1.24,3.77v9H64.93V10a3.14,3.14,0,0,0-.62-2.09,2.21,2.21,0,0,0-1.76-.72,2.31,2.31,0,0,0-1.79.72A3,3,0,0,0,60.1,10v7.71Z"/><path class="cls-1" d="M78.41,17.66V.73H91.18V4H82.11V7.48h8v3.31h-8v3.56H91.3v3.31Z"/><path class="cls-1" d="M99.65,17.9a5.57,5.57,0,0,1-4.16-1.8,6.75,6.75,0,0,1-1.75-4.9v0a6.82,6.82,0,0,1,1.73-4.9,5.6,5.6,0,0,1,4.18-1.8,5.07,5.07,0,0,1,4,1.94V0h3.67V17.66h-3.67V15.8A4.8,4.8,0,0,1,99.65,17.9Zm-1.31-4.12a3,3,0,0,0,4.49,0,3.73,3.73,0,0,0,.91-2.58v0a3.7,3.7,0,0,0-.91-2.57,2.91,2.91,0,0,0-2.24-1,2.94,2.94,0,0,0-2.25,1,3.7,3.7,0,0,0-.92,2.59v0A3.69,3.69,0,0,0,98.34,13.78Z"/><path class="cls-1" d="M115.3,17.9a4.12,4.12,0,0,1-3.24-1.28,5,5,0,0,1-1.16-3.53V4.69h3.67v7.24a3,3,0,0,0,.58,2,2.06,2.06,0,0,0,1.65.67,2.16,2.16,0,0,0,1.68-.67,2.83,2.83,0,0,0,.62-2V4.69h3.68v13H119.1V15.82A4.73,4.73,0,0,1,115.3,17.9Z"/><path class="cls-1" d="M132.52,18a6.63,6.63,0,0,1-6.75-6.7V11.2a6.93,6.93,0,0,1,12-4.57L135.5,9.05a4,4,0,0,0-2.95-1.43,2.84,2.84,0,0,0-2.25,1,3.68,3.68,0,0,0-.9,2.49v0a3.67,3.67,0,0,0,.91,2.55,3,3,0,0,0,2.38,1,4.34,4.34,0,0,0,3-1.38l2.15,2.18a8.19,8.19,0,0,1-2.27,1.77A6.82,6.82,0,0,1,132.52,18Z"/><path class="cls-1" d="M144.23,17.9a4.84,4.84,0,0,1-3.18-1,3.57,3.57,0,0,1-1.27-2.92v0a3.59,3.59,0,0,1,1.42-3.1,6.31,6.31,0,0,1,3.81-1,9.85,9.85,0,0,1,3.17.53v-.22q0-2.37-2.79-2.37a10.64,10.64,0,0,0-3.58.7l-.92-2.8a12.46,12.46,0,0,1,5-1A5.91,5.91,0,0,1,150.3,6a5.6,5.6,0,0,1,1.41,4.14v7.52h-3.56v-1.4A5,5,0,0,1,144.23,17.9Zm1.11-2.54a3.24,3.24,0,0,0,2.09-.64,2,2,0,0,0,.79-1.63v-.66a5.5,5.5,0,0,0-2.34-.48,3.3,3.3,0,0,0-1.87.46,1.51,1.51,0,0,0-.67,1.33v0a1.37,1.37,0,0,0,.55,1.15A2.35,2.35,0,0,0,145.34,15.36Z"/><path class="cls-1" d="M159.47,17.88a4.06,4.06,0,0,1-2.79-.88,3.94,3.94,0,0,1-1-3V7.84h-1.55V4.69h1.55V1.38h3.68V4.69h3.05V7.84h-3.05v5.54c0,.84.39,1.26,1.18,1.26a3.84,3.84,0,0,0,1.82-.46v2.95A5.58,5.58,0,0,1,159.47,17.88Z"/><path class="cls-1" d="M166,3.27V0h3.87V3.27Zm.1,14.39v-13h3.67v13Z"/><path class="cls-1" d="M184.72,16a7.4,7.4,0,0,1-10,0,6.37,6.37,0,0,1-2-4.75V11.2a6.41,6.41,0,0,1,2-4.79,7.38,7.38,0,0,1,10,0,6.39,6.39,0,0,1,2,4.75v0A6.44,6.44,0,0,1,184.72,16Zm-5-1.21a3.15,3.15,0,0,0,2.44-1,3.64,3.64,0,0,0,.92-2.52V11.2a3.63,3.63,0,0,0-1-2.53,3.42,3.42,0,0,0-4.9,0,3.6,3.6,0,0,0-.92,2.51v0a3.61,3.61,0,0,0,1,2.53A3.18,3.18,0,0,0,179.75,14.78Z"/><path class="cls-1" d="M189.42,17.66v-13h3.68V6.53a4.75,4.75,0,0,1,3.8-2.08,4.18,4.18,0,0,1,3.24,1.28,5.12,5.12,0,0,1,1.16,3.54v8.39h-3.68V10.43a2.9,2.9,0,0,0-.58-2,2,2,0,0,0-1.64-.68,2.16,2.16,0,0,0-1.68.68,2.76,2.76,0,0,0-.62,2v7.23Z"/></symbol></defs><title>oeg-mainH-RGB</title><g id="Layer_2" data-name="Layer 2"><g id="Layer_1-2" data-name="Layer 1"><path class="cls-2" d="M58.56,14.87"/><path class="cls-2" d="M58.56,14.87"/><path class="cls-2" d="M90.22,18.41"/><path class="cls-2" d="M90.22,18.41"/><path class="cls-2" d="M74.43,97.76c-8.22,0-15.74-5.42-21.18-15.26-5-9-7.73-20.93-7.73-33.53s2.75-24.49,7.73-33.52C58.69,5.61,66.21.19,74.43.19a4.33,4.33,0,1,1,0,8.65c-4.91,0-9.73,3.83-13.57,10.78C56.57,27.39,54.2,37.81,54.2,49s2.37,21.59,6.66,29.36c3.84,7,8.66,10.78,13.57,10.78S84.16,85.28,88,78.33c4.3-7.77,6.66-18.2,6.66-29.36a4.34,4.34,0,0,1,8.68,0c0,12.6-2.74,24.5-7.73,33.53C90.17,92.34,82.65,97.76,74.43,97.76Z"/><path class="cls-2" d="M11.39,71.05a.25.25,0,0,1,.16-.37,239.27,239.27,0,0,1,48.45-8c4.82-.29,9.72-.44,14.57-.44a241.73,241.73,0,0,1,37,2.85l4.29.66-1.34,8.55-4.29-.66a231.93,231.93,0,0,0-35.61-2.75c-4.67,0-9.39.14-14,.43a229.65,229.65,0,0,0-45.06,7.28.36.36,0,0,1-.4-.18Z"/><path class="cls-2" d="M0,53.47a.25.25,0,0,1,.14-.35c3.25-1,6.57-2,9.91-3h0l1.36-.38a239.85,239.85,0,0,1,48.68-7.93c4.56-.27,9.2-.4,13.8-.4,6.54,0,13.19.27,19.76.81l.83.07,1.89.16h.14c4.13.39,8.4.9,12.7,1.53l2.62.37v0q1.48.23,3,.48h.06c1.55.27,3.1.55,4.59.83l3.5.52a.7.7,0,0,1,.55.74l-.6,8.18-5.09-.94c-1.45-.28-3-.55-4.67-.84l-2.9-.46c-1.36-.21-2.8-.43-4.54-.67l-4-.52-2.93-.31A231.46,231.46,0,0,0,74,50.1a234,234,0,0,0-25,1.35A230.34,230.34,0,0,0,4.57,60.8a.39.39,0,0,1-.46-.18Z"/><path class="cls-2" d="M85.53,22.47a.32.32,0,0,0-.3-.35c-3.77-.17-7.57-.26-11.32-.26-4.62,0-9.29.13-13.88.4a239.06,239.06,0,0,0-48.52,7.89.14.14,0,0,0-.09.2L15.26,38a.19.19,0,0,0,.21.09A230.3,230.3,0,0,1,60.54,30.9c4.42-.26,8.91-.39,13.36-.39,2,0,7.17.1,9.89.16a.87.87,0,0,0,.89-.78Z"/><path class="cls-2" d="M78.48,97.83A49,49,0,1,1,74.35,0a49.22,49.22,0,0,1,41.09,22,.51.51,0,0,1-.15.71L108.62,27a.53.53,0,0,1-.73-.15A40.39,40.39,0,0,0,40,28.1,36.8,36.8,0,0,0,35.2,39.57,40,40,0,0,0,45.91,77.32,40.42,40.42,0,0,0,83.82,88a37,37,0,0,0,11.53-4.75A40.11,40.11,0,0,0,114.58,49V46.32l6.6-.35,2.19.32a.24.24,0,0,1,.2.23V49A49.09,49.09,0,0,1,78.48,97.83Z"/><use width="203.27" height="60.1" transform="translate(135.71 25.34) scale(0.95 0.95)" xlink:href="#Type_2"/></g></g></svg>